<svg width="219" height="332" viewBox="0 0 219 332" fill="none" xmlns="http://www.w3.org/2000/svg">
<path opacity="0.47" d="M263.354 171.294C258.574 165.027 252.755 159.596 247.352 154.164C233.428 141.631 217.633 132.648 204.333 119.488C173.368 88.9892 166.51 38.6455 186.253 0C166.51 4.80458 149.261 15.6671 134.506 27.5741C80.6807 71.0242 59.4832 147.689 84.8371 213.491C85.6684 215.579 86.4996 217.668 86.4996 220.384C86.4996 224.98 83.3824 229.158 79.226 230.829C74.4461 232.918 69.4585 231.664 65.5099 228.322C64.3304 227.329 63.344 226.125 62.6004 224.771C39.1169 194.899 35.3761 152.075 51.1704 117.817C16.4646 146.226 -2.44693 194.272 0.254718 239.602C1.50163 250.047 2.74855 260.492 6.28147 270.937C9.19094 283.47 14.8021 296.004 21.0366 307.075C43.4811 343.214 82.3433 369.117 124.115 374.34C168.588 379.98 216.179 371.833 250.261 340.916C288.292 306.24 301.592 250.674 282.057 203.046L279.356 197.615C274.992 188.005 263.354 171.294 263.354 171.294ZM197.683 302.898C191.864 307.911 182.304 313.342 174.823 315.431C151.547 323.787 128.271 312.089 114.555 298.302C139.286 292.453 154.041 274.07 158.405 255.478C161.938 238.767 155.288 224.98 152.586 208.895C150.092 193.437 150.508 180.276 156.119 165.863C160.068 173.801 164.224 181.739 169.212 188.005C185.214 208.895 210.36 218.086 215.763 246.496C216.594 249.42 217.01 252.345 217.01 255.478C217.633 272.608 210.152 291.408 197.683 302.898Z" fill="url(#paint0_linear_2232_13146)"/>
<defs>
<linearGradient id="paint0_linear_2232_13146" x1="59.2778" y1="-66.5646" x2="331.139" y2="400.826" gradientUnits="userSpaceOnUse">
<stop stop-color="#FFC53A"/>
<stop offset="1" stop-color="#FFC53A" stop-opacity="0"/>
</linearGradient>
</defs>
</svg>
