<svg width="55" height="51" viewBox="0 0 55 51" fill="none" xmlns="http://www.w3.org/2000/svg">
<path d="M49.7747 28.3454C48.8713 27.162 47.7715 26.1364 46.7503 25.1108C44.1186 22.7441 41.1335 21.0479 38.6196 18.5629C32.7672 12.8038 31.471 3.29743 35.2024 -4C31.471 -3.09275 28.2108 -1.04158 25.4221 1.20682C15.2489 9.41149 11.2425 23.888 16.0345 36.3134C16.1916 36.7078 16.3487 37.1023 16.3487 37.6151C16.3487 38.4829 15.7596 39.2718 14.974 39.5874C14.0706 39.9818 13.1279 39.7451 12.3816 39.114C12.1587 38.9265 11.9722 38.6991 11.8317 38.4434C7.39323 32.8027 6.68621 24.7164 9.67138 18.2473C3.11187 23.6119 -0.462478 32.6844 0.0481427 41.2441C0.283814 43.2163 0.519485 45.1886 1.18722 47.1609C1.73712 49.5276 2.79764 51.8944 3.97599 53.985C8.21808 60.8091 15.5632 65.7003 23.4581 66.6865C31.8637 67.7515 40.8585 66.2131 47.3002 60.3752C54.4882 53.8272 57.002 43.3347 53.3098 34.3411L52.7992 33.3155C51.9743 31.501 49.7747 28.3454 49.7747 28.3454ZM37.3627 53.1961C36.2629 54.1428 34.4561 55.1684 33.0421 55.5628C28.6429 57.1406 24.2437 54.9317 21.6513 52.3283C26.3255 51.2238 29.1142 47.7526 29.9391 44.2419C30.6068 41.0863 29.3499 38.4829 28.8393 35.4456C28.368 32.5266 28.4465 30.0415 29.507 27.3198C30.2533 28.8187 31.0389 30.3176 31.9816 31.501C35.006 35.4456 39.7587 37.1812 40.78 42.5458C40.9371 43.098 41.0156 43.6502 41.0156 44.2419C41.1335 47.4765 39.7194 51.0266 37.3627 53.1961Z" fill="url(#paint0_linear_2232_12959)"/>
<defs>
<linearGradient id="paint0_linear_2232_12959" x1="11.2037" y1="-16.5694" x2="62.5158" y2="71.7288" gradientUnits="userSpaceOnUse">
<stop stop-color="#FFC53A"/>
<stop offset="1" stop-color="#FFC53A" stop-opacity="0"/>
</linearGradient>
</defs>
</svg>
