<svg width="336" height="208" viewBox="0 0 336 208" fill="none" xmlns="http://www.w3.org/2000/svg">
<g opacity="0.16">
<path d="M394.6 109.424C394.56 109.34 394.521 109.257 394.472 109.174C394.376 109.024 394.275 108.888 394.152 108.752C393.862 108.401 393.52 108.089 393.094 107.883C364.914 94.298 353.317 82.574 343.999 73.1544C342.901 72.0439 341.839 70.9685 340.781 69.9282C271.263 1.24772 250.874 -5.29683 228.945 5.54492C219.723 10.1055 213.793 14.7714 209.03 18.5155C204.676 21.9392 201.766 24.2261 198.741 24.5202C195.726 24.1383 192.882 21.7636 188.628 18.217C183.976 14.3324 178.19 9.49975 169.1 4.67144C147.487 -6.81994 126.918 -0.859179 55.4283 65.7495C54.3442 66.7591 53.2512 67.7994 52.1231 68.8748C42.528 78.0179 30.5889 89.3907 2.02285 102.155C1.94384 102.19 1.88678 102.252 1.81655 102.291C1.79022 102.304 1.76388 102.317 1.73754 102.331C1.70682 102.348 1.69365 102.374 1.66292 102.392C1.41273 102.546 1.18448 102.726 0.98696 102.936C0.815775 103.107 0.670924 103.283 0.543632 103.485C0.534854 103.498 0.530466 103.507 0.526076 103.52C-0.0664891 104.468 -0.202559 105.666 0.346112 106.729C0.912341 107.822 2.00968 108.458 3.1597 108.484C5.35877 109.814 11.6707 116.478 15.1646 120.639C22.2315 129.075 26.3136 139.206 30.6284 149.929C33.6395 157.4 36.7428 165.121 40.9522 172.152C50.3059 187.805 64.3827 202.755 79.5655 213.18C88.274 219.167 98.1852 224.281 108.228 227.968C137.123 238.594 167.805 240.416 196.648 240.802C199.641 240.842 202.652 240.868 205.685 240.868C230.937 240.868 257.458 239.16 283.224 230.535C293.363 227.138 303.419 222.323 312.303 216.599C327.789 206.613 342.296 192.08 352.097 176.717C356.509 169.808 359.84 162.184 363.066 154.806C367.697 144.21 372.073 134.202 379.386 125.976C382.581 122.381 389.407 115.494 391.738 114.177C391.738 114.177 391.746 114.177 391.755 114.177C392.896 114.177 394.007 113.581 394.6 112.51C395.17 111.509 395.096 110.368 394.6 109.424ZM56.6266 73.5934C57.7328 72.5311 58.8126 71.5084 59.8792 70.5164C128.024 7.03291 147.702 0.68588 166.041 10.4259C174.534 14.9426 180.034 19.5338 184.454 23.2209C189.379 27.3294 193.268 30.5775 198.403 31.0428C198.57 31.0603 198.728 31.0603 198.895 31.0472C204.039 30.7399 208.025 27.6059 213.064 23.6423C217.589 20.0825 223.221 15.6536 231.837 11.3916C250.448 2.19144 269.941 9.11347 336.199 74.5678C337.235 75.5949 338.279 76.6484 339.364 77.7413C347.989 86.463 358.497 97.0809 381.383 109.261C380.812 109.349 380.251 109.441 379.684 109.525L379.083 109.617C368.654 111.232 358.15 112.492 347.866 113.365C334.026 114.542 319.949 115.148 306.031 115.169C293.855 115.205 277.689 114.84 261.808 111.939C254.82 110.653 247.613 108.686 240.388 106.097C238.553 105.443 236.709 104.574 234.761 103.652C230.455 101.624 225.666 99.3678 220.333 99.3678C219.38 99.3678 218.41 99.4424 217.418 99.6004C213.876 100.171 210.966 101.751 208.157 103.283C205.922 104.495 203.82 105.645 201.608 106.141C197.556 107.049 194.699 106.321 193.759 106.088C193.724 106.079 193.413 106 193.382 105.996C191.152 105.504 189.05 104.258 186.815 102.941C184.116 101.343 181.329 99.6882 177.874 99.0298C171.387 97.7964 165.558 100.333 160.418 102.576C158.438 103.437 156.577 104.249 154.725 104.85C147.403 107.234 140.143 108.985 133.142 110.06C117.187 112.496 101.091 112.378 88.8446 111.996C74.9654 111.575 60.9151 110.552 47.0798 108.972C36.6682 107.773 26.2039 106.206 15.9811 104.31L15.5421 104.231C14.932 104.117 14.3175 104.003 13.6986 103.889C36.9271 92.3623 47.7469 82.0561 56.6266 73.5934ZM228.971 108.168C228.615 108.305 228.26 108.432 227.909 108.572C224.726 109.819 221.654 111.338 218.691 112.799C211.567 116.32 204.834 119.66 197.148 119.111C189.862 118.615 182.821 115.161 176.009 111.82C173.41 110.543 170.724 109.226 168.046 108.081L167.129 107.686C166.76 107.528 166.436 107.387 166.089 107.238C169.671 105.781 173.134 104.749 176.658 105.421C178.994 105.868 181.184 107.163 183.501 108.533C186.078 110.056 188.738 111.632 192.162 112.391C193.474 112.72 197.455 113.743 203.043 112.488C206.142 111.79 208.754 110.372 211.277 108.998C213.718 107.672 216.018 106.417 218.458 106.026C222.005 105.473 225.438 106.606 228.971 108.168ZM374.523 121.644C366.521 130.646 361.732 141.598 357.101 152.189C353.976 159.335 350.745 166.727 346.611 173.206C337.292 187.809 323.5 201.623 308.779 211.112C300.342 216.542 290.791 221.12 281.156 224.346C253.222 233.696 224.081 234.657 196.74 234.275C168.472 233.898 138.453 232.133 110.475 221.84C100.937 218.333 91.5265 213.478 83.2614 207.798C68.8203 197.887 55.4415 183.674 46.553 168.803C42.607 162.206 39.5959 154.722 36.6813 147.488C32.3622 136.765 27.8982 125.673 20.1641 116.438C18.3162 114.243 16.6702 112.382 15.191 110.776C25.4314 112.663 35.9044 114.235 46.338 115.433C60.3532 117.039 74.588 118.071 88.6471 118.501C101.166 118.887 117.648 119.006 134.134 116.491C141.478 115.367 149.089 113.528 156.744 111.039C157.007 110.956 157.262 110.842 157.525 110.749C160.084 111.759 161.998 112.575 164.561 113.673L165.483 114.072C168.007 115.148 170.5 116.372 173.143 117.667C180.517 121.284 188.141 125.024 196.705 125.616C197.411 125.664 198.109 125.686 198.798 125.686C207.327 125.686 214.565 122.109 221.584 118.641C224.428 117.237 227.369 115.784 230.292 114.638C232.662 113.712 235.046 112.808 237.442 111.93C237.693 112.027 237.938 112.141 238.193 112.233C245.747 114.941 253.301 117 260.64 118.347C276.675 121.275 292.77 121.688 305.184 121.688C305.473 121.688 305.763 121.688 306.048 121.688C320.151 121.67 334.408 121.056 348.428 119.862C358.716 118.993 369.225 117.729 379.662 116.122C378.126 117.685 376.432 119.497 374.523 121.644Z" fill="url(#paint0_linear_2254_10486)"/>
</g>
<defs>
<linearGradient id="paint0_linear_2254_10486" x1="-1.017e-06" y1="-82.2476" x2="447.519" y2="-39.3382" gradientUnits="userSpaceOnUse">
<stop stop-color="#E43F6F"/>
<stop offset="1" stop-color="#FF86CE"/>
</linearGradient>
</defs>
</svg>
