<svg width="148" height="25" viewBox="0 0 148 25" fill="none" xmlns="http://www.w3.org/2000/svg">
<path d="M4.61936e-07 8.93128C4.61936e-07 6.46728 0.868001 4.36728 2.604 2.63128C4.35867 0.876614 6.468 -0.00071907 8.932 -0.00071907C11.396 -0.00071907 13.496 0.876614 15.232 2.63128C16.9867 4.36728 17.864 6.46728 17.864 8.93128C17.864 11.3953 16.9867 13.5046 15.232 15.2593C13.496 16.9953 11.396 17.8633 8.932 17.8633C7.66267 17.8633 6.468 17.6206 5.348 17.1353V12.3753C6.31867 13.3833 7.51333 13.8873 8.932 13.8873C10.3133 13.8873 11.48 13.4019 12.432 12.4313C13.4027 11.4606 13.888 10.2939 13.888 8.93128C13.888 7.56861 13.4027 6.40195 12.432 5.43128C11.48 4.46061 10.3133 3.97528 8.932 3.97528C7.55067 3.97528 6.37467 4.46061 5.404 5.43128C4.452 6.40195 3.976 7.56861 3.976 8.93128V24.9193H4.61936e-07V8.93128ZM34.7548 15.2593C33.0188 16.9953 30.9188 17.8633 28.4548 17.8633C25.9908 17.8633 23.8814 16.9953 22.1268 15.2593C20.3908 13.5046 19.5228 11.3953 19.5228 8.93128C19.5228 6.46728 20.3908 4.36728 22.1268 2.63128C23.8814 0.876614 25.9908 -0.00071907 28.4548 -0.00071907C30.9188 -0.00071907 33.0188 0.876614 34.7548 2.63128C36.5094 4.36728 37.3868 6.46728 37.3868 8.93128C37.3868 11.3953 36.5094 13.5046 34.7548 15.2593ZM24.9548 12.4313C25.9254 13.4019 27.0921 13.8873 28.4548 13.8873C29.8174 13.8873 30.9841 13.4019 31.9548 12.4313C32.9254 11.4606 33.4108 10.2939 33.4108 8.93128C33.4108 7.54995 32.9254 6.37395 31.9548 5.40328C30.9841 4.43261 29.8174 3.94728 28.4548 3.94728C27.0921 3.94728 25.9254 4.43261 24.9548 5.40328C23.9841 6.37395 23.4988 7.54995 23.4988 8.93128C23.4988 10.2939 23.9841 11.4606 24.9548 12.4313ZM39.321 8.90328C39.321 6.43928 40.189 4.33928 41.925 2.60328C43.6796 0.867281 45.789 -0.00071907 48.253 -0.00071907V3.97528C46.8903 3.97528 45.7236 4.46061 44.753 5.43128C43.7823 6.38328 43.297 7.54061 43.297 8.90328V17.8633H39.321V8.90328ZM66.0518 7.92328V17.8633H62.0758V7.92328C62.0758 6.82195 61.6838 5.88861 60.8998 5.12328C60.1344 4.33928 59.2011 3.94728 58.0998 3.94728C57.0171 3.94728 56.0838 4.33928 55.2998 5.12328C54.5344 5.88861 54.1518 6.82195 54.1518 7.92328V17.8633H50.1758V7.92328C50.1758 5.73928 50.9504 3.87261 52.4998 2.32328C54.0491 0.773948 55.9158 -0.00071907 58.0998 -0.00071907C60.3024 -0.00071907 62.1784 0.773948 63.7278 2.32328C65.2771 3.87261 66.0518 5.73928 66.0518 7.92328ZM71.6439 17.2753C71.2519 17.6673 70.7852 17.8633 70.2439 17.8633C69.7026 17.8633 69.2359 17.6673 68.8439 17.2753C68.4519 16.8833 68.2559 16.4166 68.2559 15.8753C68.2559 15.3339 68.4519 14.8673 68.8439 14.4753C69.2359 14.0833 69.7026 13.8873 70.2439 13.8873C70.7852 13.8873 71.2519 14.0833 71.6439 14.4753C72.0359 14.8673 72.2319 15.3339 72.2319 15.8753C72.2319 16.4166 72.0359 16.8833 71.6439 17.2753Z" fill="#A64AC9"/>
<path d="M82.8702 17.8633C80.4062 17.8633 78.2968 16.9953 76.5422 15.2593C74.8062 13.5046 73.9382 11.3953 73.9382 8.93128C73.9382 6.46728 74.8062 4.36728 76.5422 2.63128C78.2968 0.876614 80.4062 -0.00071907 82.8702 -0.00071907C84.6435 -0.00071907 86.2582 0.484614 87.7142 1.45528C89.1888 2.40728 90.2808 3.66728 90.9902 5.23528H86.1742C85.2222 4.37661 84.1208 3.94728 82.8702 3.94728C81.5075 3.94728 80.3408 4.43261 79.3702 5.40328C78.3995 6.37395 77.9142 7.54995 77.9142 8.93128C77.9142 10.2939 78.3995 11.4606 79.3702 12.4313C80.3408 13.4019 81.5075 13.8873 82.8702 13.8873C84.3635 13.8873 85.6142 13.3179 86.6222 12.1793H91.1862C90.5142 13.8779 89.4222 15.2499 87.9102 16.2953C86.4168 17.3406 84.7368 17.8633 82.8702 17.8633ZM101.108 -0.00071907C103.572 -0.00071907 105.672 0.876614 107.408 2.63128C109.144 4.36728 110.012 6.46728 110.012 8.93128V17.8633H106.064V8.93128C106.064 7.56861 105.578 6.40195 104.608 5.43128C103.637 4.44195 102.47 3.94728 101.108 3.94728C99.7264 3.94728 98.5504 4.44195 97.5798 5.43128C96.6091 6.40195 96.1238 7.56861 96.1238 8.93128C96.1238 10.2939 96.6091 11.4606 97.5798 12.4313C98.5691 13.4019 99.7451 13.8873 101.108 13.8873C102.508 13.8873 103.693 13.3739 104.664 12.3473V17.1073C103.506 17.6113 102.321 17.8633 101.108 17.8633C98.6251 17.8633 96.5158 16.9953 94.7798 15.2593C93.0438 13.5046 92.1758 11.3953 92.1758 8.93128C92.1758 6.46728 93.0438 4.36728 94.7798 2.63128C96.5158 0.876614 98.6251 -0.00071907 101.108 -0.00071907ZM122.921 1.79128C124.153 0.596614 125.637 -0.00071907 127.373 -0.00071907C129.165 -0.00071907 130.686 0.633947 131.937 1.90328C133.206 3.15395 133.841 4.66595 133.841 6.43928V17.8633H129.865V6.43928C129.865 5.74861 129.622 5.16061 129.137 4.67528C128.651 4.18995 128.063 3.94728 127.373 3.94728C126.701 3.94728 126.122 4.18995 125.637 4.67528C125.151 5.16061 124.909 5.74861 124.909 6.43928V17.8633H120.933V6.43928C120.933 5.74861 120.69 5.16061 120.205 4.67528C119.719 4.18995 119.131 3.94728 118.441 3.94728C117.769 3.94728 117.19 4.18995 116.705 4.67528C116.219 5.16061 115.977 5.74861 115.977 6.43928V17.8633H112.001V6.43928C112.001 4.66595 112.626 3.15395 113.877 1.90328C115.146 0.633947 116.667 -0.00071907 118.441 -0.00071907C120.195 -0.00071907 121.689 0.596614 122.921 1.79128ZM135.899 12.1793H139.875C139.875 12.6459 140.043 13.0473 140.379 13.3833C140.715 13.7193 141.116 13.8873 141.583 13.8873C142.05 13.8873 142.451 13.7193 142.787 13.3833C143.123 13.0473 143.291 12.6459 143.291 12.1793C143.291 11.6379 143.03 11.1526 142.507 10.7233C142.302 10.5739 141.928 10.3779 141.387 10.1353C140.846 9.87395 140.323 9.61261 139.819 9.35128C139.315 9.07128 138.811 8.74461 138.307 8.37128C137.803 7.97928 137.392 7.49395 137.075 6.91528C136.758 6.33661 136.599 5.69261 136.599 4.98328C136.599 3.60195 137.084 2.42595 138.055 1.45528C139.044 0.484614 140.22 -0.00071907 141.583 -0.00071907C142.946 -0.00071907 144.112 0.484614 145.083 1.45528C146.072 2.42595 146.567 3.60195 146.567 4.98328H142.619C142.619 4.70328 142.516 4.46061 142.311 4.25528C142.106 4.04995 141.863 3.94728 141.583 3.94728C141.303 3.94728 141.06 4.04995 140.855 4.25528C140.668 4.46061 140.575 4.70328 140.575 4.98328C140.575 5.39395 140.752 5.69261 141.107 5.87928C141.424 6.04728 141.882 6.28061 142.479 6.57928C143.095 6.85928 143.58 7.09261 143.935 7.27928C144.308 7.44728 144.728 7.69928 145.195 8.03528C145.68 8.37128 146.054 8.71661 146.315 9.07128C146.576 9.40728 146.8 9.84595 146.987 10.3873C147.174 10.9286 147.267 11.5259 147.267 12.1793C147.267 13.7473 146.707 15.0913 145.587 16.2113C144.486 17.3126 143.151 17.8633 141.583 17.8633C140.015 17.8633 138.671 17.3126 137.551 16.2113C136.45 15.0913 135.899 13.7473 135.899 12.1793Z" fill="url(#paint0_linear_2200_10646)"/>
<defs>
<linearGradient id="paint0_linear_2200_10646" x1="-0.980005" y1="-14.6367" x2="44.4532" y2="74.7607" gradientUnits="userSpaceOnUse">
<stop stop-color="#C11DFF"/>
<stop offset="1" stop-color="#FCCD04"/>
</linearGradient>
</defs>
</svg>
