<svg width="229" height="78" viewBox="0 0 229 78" fill="none" xmlns="http://www.w3.org/2000/svg">
<path d="M0.955673 55.043V23.1235H20.6903V33.1581H11.4681V34.926H18.9701V43.5271H11.4681V45.0084H20.6903V55.043H0.955673ZM46.2184 35.7384V48.0666H35.467V45.7252C35.467 43.766 35.3237 43.2882 34.7025 43.2882C34.0335 43.2882 33.8424 43.766 33.8424 45.0562V55.043H22.3743V31.1511H34.9414L33.7946 37.8409H34.8936L35.7538 35.3083C36.8528 32.1068 38.6686 30.6733 41.6311 30.6733C44.7371 30.6733 46.2184 32.2979 46.2184 35.7384ZM47.1882 43.336C47.1882 34.1137 51.9666 30.6733 60.5199 30.6733C69.0732 30.6733 73.8515 34.1137 73.8515 43.336C73.8515 52.0804 69.0732 55.5208 60.5199 55.5208C51.9666 55.5208 47.1882 52.0804 47.1882 43.336ZM59.4686 43.336C59.4686 46.9675 59.6598 47.6365 60.5199 47.6365C61.38 47.6365 61.5711 46.9675 61.5711 43.336C61.5711 39.2266 61.38 38.5576 60.5199 38.5576C59.6598 38.5576 59.4686 39.2266 59.4686 43.336Z" fill="#E43F6F"/>
<path d="M75.291 55.043V23.1235H87.7148V45.2951H96.2202V55.043H75.291ZM97.9296 25.5127C97.9296 22.5023 99.9843 21.3555 103.425 21.3555C106.961 21.3555 108.968 22.5023 108.968 25.5127C108.968 28.6664 106.913 29.7176 103.425 29.7176C100.032 29.7176 97.9296 28.6664 97.9296 25.5127ZM97.6429 55.043V31.1511H109.111V55.043H97.6429ZM122.551 45.9163H123.746L124.176 31.1511H135.835L131.057 55.043H115.097L110.319 31.1511H122.073L122.551 45.9163ZM149.626 45.7252H160.664C160.664 52.1759 156.459 55.5208 148.288 55.5208C140.021 55.5208 135.243 52.0804 135.243 43.336C135.243 34.926 139.734 30.6733 148.574 30.6733C156.745 30.6733 160.664 34.3049 160.664 41.8547V44.2916H147.523C147.571 47.1587 147.714 47.6365 148.574 47.6365C149.339 47.6365 149.578 47.2064 149.626 45.7252ZM147.619 40.6601H149.626C149.626 38.7965 149.434 38.3187 148.622 38.3187C147.762 38.3187 147.619 38.8921 147.619 40.6601Z" fill="#F56476"/>
<path d="M152.169 64.6935C154.079 64.7392 155.954 64.4405 157.507 63.7643C156.15 62.7496 154.394 62.0288 152.525 61.635C152.571 59.7249 152.272 57.8504 151.596 56.2974C150.581 57.6537 149.86 59.4097 149.466 61.2793C147.556 61.2336 145.682 61.5322 144.129 62.2085C145.485 63.2231 147.241 63.944 149.111 64.3378C149.065 66.2479 149.364 68.1224 150.04 69.6754C151.054 68.319 151.763 66.5616 152.169 64.6935Z" fill="#E43F6F"/>
<path d="M226.156 12.5616C227.049 12.5772 227.908 12.4503 228.638 12.132C228.013 11.656 227.195 11.3215 226.321 11.1442C226.337 10.2514 226.21 9.39233 225.892 8.66224C225.416 9.28736 225.081 10.1053 224.904 10.9794C224.011 10.9638 223.152 11.0907 222.422 11.409C223.047 11.885 223.865 12.2195 224.739 12.3968C224.723 13.2897 224.85 14.1487 225.169 14.8788C225.646 14.2412 225.968 13.4218 226.156 12.5616Z" fill="#E43F6F"/>
<path d="M219.942 18.2248C221.338 18.2485 222.697 18.0412 223.827 17.5425C222.842 16.7979 221.554 16.2826 220.202 15.9868C220.226 14.5909 220.018 13.231 219.52 12.1019C218.775 13.0864 218.26 14.3749 217.964 15.7266C216.568 15.7029 215.208 15.9102 214.079 16.4089C215.064 17.1535 216.352 17.6687 217.704 17.9645C217.68 19.3605 217.887 20.7204 218.386 21.8495C219.131 20.8649 219.658 19.578 219.942 18.2248Z" fill="#E43F6F"/>
<path d="M166.281 13.7097C167.407 13.8407 168.426 13.0339 168.557 11.9078C168.688 10.7817 167.882 9.76261 166.756 9.63165C165.629 9.50069 164.61 10.3074 164.479 11.4336C164.348 12.5597 165.155 13.5787 166.281 13.7097Z" fill="#E43F6F"/>
<path d="M208.586 24.9484C206.21 21.106 203.753 18.8292 201.378 17.5827C198.744 16.281 195.811 16.0407 193.097 16.7331C191.729 17.116 190.526 17.7069 189.566 18.2757C189.552 18.2867 189.552 18.2867 189.538 18.2977C189.51 18.3196 189.484 18.3292 189.456 18.3511C188.172 19.2099 187.034 20.3251 186.131 21.6945C185.901 22.0458 185.504 22.2137 185.118 22.1689C184.957 22.1501 184.799 22.094 184.659 22.0021C184.167 21.6803 184.029 21.0216 184.364 20.5312C184.836 19.8301 185.364 19.1859 185.924 18.5957C183.112 15.4712 175.535 9.43618 165.081 19.9018C165.081 19.9018 157.114 27.5189 151.85 28.2426C151.85 28.2426 157.927 33.095 163.026 40.3918C166.321 45.1098 172.473 49.53 183.538 50.8168C194.591 52.1021 201.594 49.2117 205.895 45.3771C212.521 39.4437 219.549 36.1152 219.549 36.1152C214.593 34.1906 208.586 24.9484 208.586 24.9484ZM185.346 35.1621C181.778 34.7471 178.715 33.5593 176.984 32.0852L185.847 30.8602L194.179 34.0848C192.169 35.1113 188.915 35.577 185.346 35.1621Z" fill="#E43F6F"/>
</svg>
