<svg width="135" height="22" viewBox="0 0 135 22" fill="none" xmlns="http://www.w3.org/2000/svg">
<path d="M8.14 -0.000196457C9.74 -0.000196457 11.2 0.433137 12.52 1.2998C13.8533 2.15314 14.8533 3.2798 15.52 4.6798H12.16C11.1333 3.45314 9.79333 2.8398 8.14 2.8398C6.67333 2.8398 5.42 3.3598 4.38 4.3998C3.35333 5.4398 2.84 6.69314 2.84 8.1598C2.84 9.61314 3.36 10.8598 4.4 11.8998C5.44 12.9398 6.68666 13.4598 8.14 13.4598C9.79333 13.4598 11.1333 12.8465 12.16 11.6198H15.52C14.8533 13.0198 13.8533 14.1531 12.52 15.0198C11.2 15.8731 9.74 16.2998 8.14 16.2998C5.88666 16.2998 3.96666 15.5065 2.38 13.9198C0.79333 12.3331 -2.99513e-06 10.4131 -2.99513e-06 8.1598C-2.99513e-06 5.90647 0.79333 3.98647 2.38 2.3998C3.96666 0.799804 5.88666 -0.000196457 8.14 -0.000196457ZM27.1662 14.4398C25.9262 15.6798 24.4262 16.2998 22.6662 16.2998C20.9062 16.2998 19.3996 15.6798 18.1462 14.4398C16.9062 13.1865 16.2862 11.6798 16.2862 9.9198C16.2862 8.1598 16.9062 6.6598 18.1462 5.4198C19.3996 4.16647 20.9062 3.5398 22.6662 3.5398C24.4262 3.5398 25.9262 4.16647 27.1662 5.4198C28.4196 6.6598 29.0462 8.1598 29.0462 9.9198C29.0462 11.6798 28.4196 13.1865 27.1662 14.4398ZM20.1662 12.4198C20.8596 13.1131 21.6929 13.4598 22.6662 13.4598C23.6396 13.4598 24.4729 13.1131 25.1662 12.4198C25.8596 11.7265 26.2062 10.8931 26.2062 9.9198C26.2062 8.93314 25.8596 8.09314 25.1662 7.3998C24.4729 6.70647 23.6396 6.3598 22.6662 6.3598C21.6929 6.3598 20.8596 6.70647 20.1662 7.3998C19.4729 8.09314 19.1262 8.93314 19.1262 9.9198C19.1262 10.8931 19.4729 11.7265 20.1662 12.4198ZM30.4678 10.6198V3.5398H33.2878V10.6198C33.2878 11.3931 33.5611 12.0598 34.1078 12.6198C34.6678 13.1798 35.3411 13.4598 36.1278 13.4598C36.9145 13.4598 37.5811 13.1798 38.1278 12.6198C38.6878 12.0598 38.9678 11.3931 38.9678 10.6198V3.5398H41.8078V10.6198C41.8078 12.1931 41.2545 13.5331 40.1478 14.6398C39.0411 15.7465 37.7011 16.2998 36.1278 16.2998C34.5678 16.2998 33.2345 15.7465 32.1278 14.6398C31.0211 13.5331 30.4678 12.1931 30.4678 10.6198ZM43.2398 9.9198C43.2398 8.1598 43.8598 6.6598 45.0998 5.4198C46.3532 4.16647 47.8598 3.5398 49.6198 3.5398C51.3798 3.5398 52.8798 4.16647 54.1198 5.4198C55.3732 6.6598 55.9998 8.1598 55.9998 9.9198C55.9998 11.6798 55.3732 13.1865 54.1198 14.4398C52.8798 15.6798 51.3798 16.2998 49.6198 16.2998C48.7132 16.2998 47.8598 16.1265 47.0598 15.7798V12.3798C47.7532 13.0998 48.6065 13.4598 49.6198 13.4598C50.6065 13.4598 51.4398 13.1131 52.1198 12.4198C52.8132 11.7265 53.1598 10.8931 53.1598 9.9198C53.1598 8.94647 52.8132 8.11314 52.1198 7.4198C51.4398 6.72647 50.6065 6.3798 49.6198 6.3798C48.6332 6.3798 47.7932 6.72647 47.0998 7.4198C46.4198 8.11314 46.0798 8.94647 46.0798 9.9198V21.3398H43.2398V9.9198ZM57.4395 9.9198V-0.000196457H60.2595V9.9198C60.2595 10.8931 60.6062 11.7265 61.2995 12.4198C61.9929 13.1131 62.8262 13.4598 63.7995 13.4598V16.2998C62.0395 16.2998 60.5395 15.6798 59.2995 14.4398C58.0595 13.1865 57.4395 11.6798 57.4395 9.9198ZM66.1922 5.4198C67.4455 4.16647 68.9522 3.5398 70.7122 3.5398C72.4722 3.5398 73.9722 4.16647 75.2122 5.4198C76.4655 6.6598 77.0922 8.1598 77.0922 9.9198C77.0922 10.2131 77.0722 10.4998 77.0322 10.7798H68.3322V8.6598H74.0322C73.7789 7.9798 73.3455 7.42647 72.7322 6.9998C72.1322 6.57314 71.4589 6.3598 70.7122 6.3598C69.7255 6.3598 68.8855 6.71314 68.1922 7.4198C67.5122 8.11314 67.1722 8.94647 67.1722 9.9198C67.1722 10.8798 67.5122 11.7131 68.1922 12.4198C68.8722 13.1131 69.7122 13.4598 70.7122 13.4598C71.5922 13.4598 72.3522 13.1798 72.9922 12.6198H76.4922C75.9722 13.7265 75.1922 14.6198 74.1522 15.2998C73.1255 15.9665 71.9789 16.2998 70.7122 16.2998C68.9522 16.2998 67.4455 15.6798 66.1922 14.4398C64.9522 13.1865 64.3322 11.6798 64.3322 9.9198C64.3322 8.1598 64.9522 6.6598 66.1922 5.4198Z" fill="white"/>
<path d="M86.6752 -0.000196457C88.2752 -0.000196457 89.7352 0.433137 91.0552 1.2998C92.3885 2.15314 93.3885 3.2798 94.0552 4.6798H90.6952C89.6685 3.45314 88.3285 2.8398 86.6752 2.8398C85.2085 2.8398 83.9552 3.3598 82.9152 4.3998C81.8885 5.4398 81.3752 6.69314 81.3752 8.1598C81.3752 9.61314 81.8952 10.8598 82.9352 11.8998C83.9752 12.9398 85.2218 13.4598 86.6752 13.4598C88.3285 13.4598 89.6685 12.8465 90.6952 11.6198H94.0552C93.3885 13.0198 92.3885 14.1531 91.0552 15.0198C89.7352 15.8731 88.2752 16.2998 86.6752 16.2998C84.4218 16.2998 82.5018 15.5065 80.9152 13.9198C79.3285 12.3331 78.5352 10.4131 78.5352 8.1598C78.5352 5.90647 79.3285 3.98647 80.9152 2.3998C82.5018 0.799804 84.4218 -0.000196457 86.6752 -0.000196457ZM101.241 3.5398C103.001 3.5398 104.501 4.16647 105.741 5.4198C106.981 6.6598 107.601 8.1598 107.601 9.9198V16.2998H104.781V9.9198C104.781 8.94647 104.434 8.11314 103.741 7.4198C103.048 6.71314 102.214 6.3598 101.241 6.3598C100.254 6.3598 99.4143 6.71314 98.7209 7.4198C98.0276 8.11314 97.6809 8.94647 97.6809 9.9198C97.6809 10.8931 98.0276 11.7265 98.7209 12.4198C99.4276 13.1131 100.268 13.4598 101.241 13.4598C102.241 13.4598 103.088 13.0931 103.781 12.3598V15.7598C102.954 16.1198 102.108 16.2998 101.241 16.2998C99.4676 16.2998 97.9609 15.6798 96.7209 14.4398C95.4809 13.1865 94.8609 11.6798 94.8609 9.9198C94.8609 8.1598 95.4809 6.6598 96.7209 5.4198C97.9609 4.16647 99.4676 3.5398 101.241 3.5398ZM116.822 4.8198C117.702 3.96647 118.762 3.5398 120.002 3.5398C121.282 3.5398 122.368 3.99314 123.262 4.8998C124.168 5.79314 124.622 6.87314 124.622 8.1398V16.2998H121.782V8.1398C121.782 7.64647 121.608 7.22647 121.262 6.8798C120.915 6.53314 120.495 6.3598 120.002 6.3598C119.522 6.3598 119.108 6.53314 118.762 6.8798C118.415 7.22647 118.242 7.64647 118.242 8.1398V16.2998H115.402V8.1398C115.402 7.64647 115.228 7.22647 114.882 6.8798C114.535 6.53314 114.115 6.3598 113.622 6.3598C113.142 6.3598 112.728 6.53314 112.382 6.8798C112.035 7.22647 111.862 7.64647 111.862 8.1398V16.2998H109.022V8.1398C109.022 6.87314 109.468 5.79314 110.362 4.8998C111.268 3.99314 112.355 3.5398 113.622 3.5398C114.875 3.5398 115.942 3.96647 116.822 4.8198ZM126.092 12.2398H128.932C128.932 12.5731 129.052 12.8598 129.292 13.0998C129.532 13.3398 129.819 13.4598 130.152 13.4598C130.485 13.4598 130.772 13.3398 131.012 13.0998C131.252 12.8598 131.372 12.5731 131.372 12.2398C131.372 11.8531 131.185 11.5065 130.812 11.1998C130.665 11.0931 130.399 10.9531 130.012 10.7798C129.625 10.5931 129.252 10.4065 128.892 10.2198C128.532 10.0198 128.172 9.78647 127.812 9.5198C127.452 9.2398 127.159 8.89314 126.932 8.4798C126.705 8.06647 126.592 7.60647 126.592 7.0998C126.592 6.11314 126.939 5.27314 127.632 4.5798C128.339 3.88647 129.179 3.5398 130.152 3.5398C131.125 3.5398 131.959 3.88647 132.652 4.5798C133.359 5.27314 133.712 6.11314 133.712 7.0998H130.892C130.892 6.8998 130.819 6.72647 130.672 6.5798C130.525 6.43314 130.352 6.3598 130.152 6.3598C129.952 6.3598 129.779 6.43314 129.632 6.5798C129.499 6.72647 129.432 6.8998 129.432 7.0998C129.432 7.39314 129.559 7.60647 129.812 7.7398C130.039 7.8598 130.365 8.02647 130.792 8.2398C131.232 8.4398 131.579 8.60647 131.832 8.7398C132.099 8.8598 132.399 9.0398 132.732 9.2798C133.079 9.5198 133.345 9.76647 133.532 10.0198C133.719 10.2598 133.879 10.5731 134.012 10.9598C134.145 11.3465 134.212 11.7731 134.212 12.2398C134.212 13.3598 133.812 14.3198 133.012 15.1198C132.225 15.9065 131.272 16.2998 130.152 16.2998C129.032 16.2998 128.072 15.9065 127.272 15.1198C126.485 14.3198 126.092 13.3598 126.092 12.2398Z" fill="#FFFF20"/>
</svg>
