<svg width="161" height="24" viewBox="0 0 161 24" fill="none" xmlns="http://www.w3.org/2000/svg">
<path d="M0.404297 17.6484L3.70898 3.9375C4.64648 1.32422 6.33398 0.0175781 8.77148 0.0175781H25.084L23.7656 5.44922H9.70312C9.57422 5.44922 9.43945 5.50195 9.29883 5.60742C9.1582 5.71289 9.05859 5.85352 9 6.0293L6.25781 17.4727C6.22266 17.6953 6.27539 17.8887 6.41602 18.0527C6.55664 18.2168 6.73828 18.2988 6.96094 18.2988L20.707 18.3164C20.3086 19.9688 19.8691 21.7734 19.3887 23.7305H5.43164C3.61523 23.6602 2.25586 22.998 1.35352 21.7441C0.451172 20.4785 0.134766 19.1133 0.404297 17.6484ZM38.9707 23.7305L29.1094 23.6602C27.4102 23.5547 26.1211 23.1738 25.2422 22.5176C24.375 21.8613 23.7188 20.9707 23.2734 19.8457C22.3008 17.4199 22.5117 14.6602 23.9062 11.5664C25.7812 8.03906 28.8398 6.14648 33.082 5.88867H43.2773L38.9707 23.7305ZM34.5059 18.6328L35.9297 12.6562H35.9121L36.3516 10.7754H33.627C32.1621 10.7988 30.9844 11.1914 30.0938 11.9531C29.2266 12.6445 28.6582 13.4883 28.3887 14.4844C27.5918 17.2148 28.4004 18.5977 30.8145 18.6328H34.5059ZM68.9238 11.918L65.9531 23.7305H60.1875L63.1406 11.918C63.1875 11.6133 63.123 11.3496 62.9473 11.127C62.7598 10.8926 62.5078 10.7754 62.1914 10.7754H60.0645H59.6777C59.666 11.1504 59.6133 11.5312 59.5195 11.918L56.5488 23.7305H50.7832L53.7363 11.918C53.7832 11.6133 53.7188 11.3496 53.543 11.127C53.3555 10.8926 53.1035 10.7754 52.7871 10.7754H50.291L47.1621 23.7305H41.3789L45.7207 5.87109H50.959V5.85352H54.9141C57.1641 5.85352 58.6934 7.00195 59.502 9.29883L60.3105 5.87109H62.2969L62.3145 5.85352H64.3008C65.8945 5.85352 67.1543 6.46289 68.0801 7.68164C68.9941 8.88867 69.2754 10.3008 68.9238 11.918ZM68.3789 23.7305L69.5742 18.8789H78.7324C79.7051 18.9609 80.291 18.6562 80.4902 17.9648C80.5137 17.2148 79.9512 16.875 78.8027 16.9453H76.2188C74.4375 16.9102 73.0781 16.3359 72.1406 15.2227C71.1914 14.0977 70.8984 12.5566 71.2617 10.5996C72.293 7.20117 74.8945 5.625 79.0664 5.87109H88.8047L87.6621 10.5293H78.1875C77.4727 10.4941 77.0625 10.752 76.957 11.3027C76.9102 11.7363 77.0625 12.0234 77.4141 12.1641C77.7656 12.3047 78.252 12.3574 78.873 12.3223L81.1758 12.252C83.3438 12.3223 84.7793 12.9375 85.4824 14.0977C86.1855 15.2461 86.373 16.7871 86.0449 18.7207C85.3301 22.1895 82.9512 23.8594 78.9082 23.7305H68.3789Z" fill="white"/>
<path d="M100.758 23.7305H97.3301C96.0059 23.7305 94.8691 23.2852 93.9199 22.3945C92.9707 21.5039 92.4434 20.3789 92.3379 19.0195L91.2129 0.0175781H97.2422L97.8398 16.7344L105.521 0.0175781H112.184L100.758 23.7305ZM109.266 23.7305L113.695 5.76562H119.496L115.137 23.7305H109.266ZM114.064 4.21875L115.154 0H120.938L119.848 4.21875H114.064ZM117.773 23.7305L118.951 18.8438H124.699H127.529H127.547C128.953 18.7969 130.09 18.4043 130.957 17.666C131.812 16.9746 132.381 16.1309 132.662 15.1348C133.459 12.4043 132.65 11.0215 130.236 10.9863H127.547H126.65L124.963 17.1914H119.355L123.609 0H129.217L127.863 5.94141L131.941 5.95898C133.641 6.06445 134.924 6.44531 135.791 7.10156C136.67 7.75781 137.332 8.64844 137.777 9.77344C138.75 12.2109 138.539 14.9707 137.145 18.0527C135.27 21.5801 132.211 23.4727 127.969 23.7305H117.773ZM156.551 23.7305L145.969 23.6602C144.27 23.5547 142.98 23.1738 142.102 22.5176C141.234 21.8613 140.578 20.9707 140.133 19.8457C139.16 17.4199 139.371 14.6602 140.766 11.5664C142.641 8.03906 145.699 6.14648 149.941 5.88867H155.76C157.553 6.00586 158.73 6.5332 159.293 7.4707C159.867 8.39648 160.008 9.43945 159.715 10.5996L159.68 10.7754L158.115 17.1738H147.674C147.1 17.0918 146.801 16.6641 146.777 15.8906C146.766 15.1172 147.012 14.3379 147.516 13.5527C148.02 12.7676 148.752 12.334 149.713 12.252H151.77H153.633L154.002 10.7754H153.932H150.381H150.363C148.957 10.8223 147.82 11.2148 146.953 11.9531C146.086 12.6445 145.518 13.4883 145.248 14.4844C144.568 17.168 145.377 18.5508 147.674 18.6328H150.363H157.781L156.551 23.7305Z" fill="#FFC53A"/>
</svg>
