<svg width="125" height="27" viewBox="0 0 125 27" fill="none" xmlns="http://www.w3.org/2000/svg">
<path d="M0 14C0 7.37258 5.37258 2 12 2C18.6274 2 24 7.37258 24 14C24 20.6274 18.6274 26 12 26C5.37258 26 0 20.6274 0 14Z" fill="#C7FF00"/>
<path d="M8.28221 8L11.7914 12.7816L11.9877 13.1801L12.2086 12.7816L15.6933 8H17.9755L13.1902 14.5249L18 21H15.7178L12.2086 16.2433L11.9877 15.8697L11.7914 16.2433L8.28221 21H6L10.8098 14.5249L6.02454 8H8.28221Z" fill="#040C1A"/>
<path d="M34.25 21.22C33.3407 21.22 32.5487 21.022 31.874 20.626C31.1993 20.2153 30.6713 19.6653 30.29 18.976V25.686H27.342V9.472H29.916V11.452C30.3413 10.7773 30.8913 10.2493 31.566 9.868C32.2407 9.472 33.018 9.274 33.898 9.274C34.6753 9.274 35.394 9.43533 36.054 9.758C36.714 10.066 37.2787 10.4913 37.748 11.034C38.232 11.562 38.606 12.1927 38.87 12.926C39.1487 13.6447 39.288 14.4073 39.288 15.214C39.288 16.05 39.1633 16.8347 38.914 17.568C38.6647 18.3013 38.3127 18.9393 37.858 19.482C37.418 20.0247 36.89 20.45 36.274 20.758C35.658 21.066 34.9833 21.22 34.25 21.22ZM33.26 18.712C33.7 18.712 34.1033 18.6167 34.47 18.426C34.8513 18.2353 35.174 17.9787 35.438 17.656C35.702 17.3333 35.9073 16.9593 36.054 16.534C36.2007 16.1087 36.274 15.6687 36.274 15.214C36.274 14.73 36.1933 14.2827 36.032 13.872C35.8707 13.4467 35.6433 13.08 35.35 12.772C35.0713 12.464 34.734 12.222 34.338 12.046C33.9567 11.87 33.5387 11.782 33.084 11.782C32.8053 11.782 32.5193 11.8333 32.226 11.936C31.9327 12.024 31.6613 12.156 31.412 12.332C31.1627 12.508 30.9353 12.7133 30.73 12.948C30.5393 13.1827 30.3927 13.4393 30.29 13.718V16.424C30.554 17.084 30.9573 17.634 31.5 18.074C32.0427 18.4993 32.6293 18.712 33.26 18.712ZM41.2634 4.94H44.2114V17.304C44.2114 17.7293 44.314 18.0593 44.5194 18.294C44.7247 18.5287 45.018 18.646 45.3994 18.646C45.5754 18.646 45.766 18.6167 45.9714 18.558C46.1914 18.4993 46.3967 18.426 46.5874 18.338L46.9834 20.582C46.5874 20.7727 46.1254 20.9193 45.5974 21.022C45.0694 21.1247 44.5927 21.176 44.1674 21.176C43.2434 21.176 42.5247 20.934 42.0114 20.45C41.5127 19.9513 41.2634 19.2473 41.2634 18.338V4.94ZM51.4138 21.22C50.8564 21.22 50.3358 21.132 49.8518 20.956C49.3678 20.7653 48.9498 20.5087 48.5978 20.186C48.2458 19.8487 47.9671 19.46 47.7618 19.02C47.5711 18.58 47.4758 18.096 47.4758 17.568C47.4758 17.0253 47.5931 16.5267 47.8278 16.072C48.0771 15.6027 48.4144 15.2067 48.8398 14.884C49.2798 14.5613 49.8004 14.312 50.4018 14.136C51.0031 13.9453 51.6631 13.85 52.3818 13.85C52.8951 13.85 53.3938 13.894 53.8778 13.982C54.3764 14.07 54.8164 14.1947 55.1978 14.356V13.696C55.1978 12.9333 54.9778 12.3467 54.5378 11.936C54.1124 11.5253 53.4744 11.32 52.6238 11.32C52.0078 11.32 51.4064 11.43 50.8198 11.65C50.2331 11.87 49.6318 12.1927 49.0158 12.618L48.1138 10.748C49.5951 9.76533 51.1938 9.274 52.9098 9.274C54.5671 9.274 55.8504 9.68467 56.7598 10.506C57.6838 11.3127 58.1458 12.486 58.1458 14.026V17.612C58.1458 17.92 58.1971 18.14 58.2998 18.272C58.4171 18.404 58.6004 18.4773 58.8498 18.492V21C58.3511 21.1027 57.9184 21.154 57.5518 21.154C56.9944 21.154 56.5618 21.0293 56.2538 20.78C55.9604 20.5307 55.7771 20.2007 55.7038 19.79L55.6378 19.152C55.1244 19.8267 54.5011 20.34 53.7678 20.692C53.0344 21.044 52.2498 21.22 51.4138 21.22ZM52.2498 19.064C52.7484 19.064 53.2178 18.976 53.6578 18.8C54.1124 18.624 54.4644 18.3893 54.7138 18.096C55.0364 17.8467 55.1978 17.568 55.1978 17.26V15.94C54.8458 15.808 54.4644 15.7053 54.0538 15.632C53.6431 15.544 53.2471 15.5 52.8658 15.5C52.1031 15.5 51.4798 15.676 50.9958 16.028C50.5118 16.3653 50.2698 16.798 50.2698 17.326C50.2698 17.8247 50.4604 18.2427 50.8418 18.58C51.2231 18.9027 51.6924 19.064 52.2498 19.064ZM60.8633 23.244C61.1126 23.3173 61.3546 23.3687 61.5893 23.398C61.824 23.442 62.022 23.464 62.1833 23.464C62.374 23.464 62.55 23.4273 62.7113 23.354C62.8726 23.2807 63.0193 23.1487 63.1513 22.958C63.2833 22.782 63.4153 22.5327 63.5473 22.21C63.6793 21.8873 63.8186 21.484 63.9653 21L59.4113 9.472H62.4473L65.5713 18.448L68.3433 9.472H71.1153L66.2753 23.288C65.9966 24.0947 65.52 24.7547 64.8453 25.268C64.1706 25.7813 63.3346 26.038 62.3373 26.038C62.1026 26.038 61.8606 26.016 61.6113 25.972C61.3766 25.9427 61.1273 25.884 60.8633 25.796V23.244ZM72.079 19.46L82.155 7.14H72.277V5.38H84.465V6.92L74.565 19.24H84.465V21H72.079V19.46ZM91.5096 21.22C90.6443 21.22 89.8523 21.0587 89.1336 20.736C88.4296 20.4133 87.821 19.9807 87.3076 19.438C86.809 18.8953 86.4203 18.2647 86.1416 17.546C85.863 16.8273 85.7236 16.072 85.7236 15.28C85.7236 14.4733 85.863 13.7107 86.1416 12.992C86.435 12.2733 86.831 11.6427 87.3296 11.1C87.843 10.5573 88.4516 10.1247 89.1556 9.802C89.8743 9.47933 90.659 9.318 91.5096 9.318C92.3603 9.318 93.145 9.47933 93.8636 9.802C94.5823 10.1247 95.191 10.5573 95.6896 11.1C96.203 11.6427 96.599 12.2733 96.8776 12.992C97.171 13.7107 97.3176 14.4733 97.3176 15.28C97.3176 16.072 97.1783 16.8273 96.8996 17.546C96.621 18.2647 96.225 18.8953 95.7116 19.438C95.1983 19.9807 94.5823 20.4133 93.8636 20.736C93.1596 21.0587 92.375 21.22 91.5096 21.22ZM87.7036 15.302C87.7036 15.9033 87.799 16.4607 87.9896 16.974C88.195 17.4873 88.4663 17.9347 88.8036 18.316C89.1556 18.6973 89.559 18.998 90.0136 19.218C90.483 19.438 90.9816 19.548 91.5096 19.548C92.0376 19.548 92.529 19.438 92.9836 19.218C93.453 18.998 93.8636 18.6973 94.2156 18.316C94.5676 17.92 94.839 17.4653 95.0296 16.952C95.235 16.424 95.3376 15.8593 95.3376 15.258C95.3376 14.6713 95.235 14.1213 95.0296 13.608C94.839 13.08 94.5676 12.6253 94.2156 12.244C93.8636 11.848 93.453 11.54 92.9836 11.32C92.529 11.1 92.0376 10.99 91.5096 10.99C90.9816 10.99 90.483 11.1073 90.0136 11.342C89.559 11.562 89.1556 11.87 88.8036 12.266C88.4663 12.6473 88.195 13.102 87.9896 13.63C87.799 14.1433 87.7036 14.7007 87.7036 15.302ZM109.63 21H107.694V14.576C107.694 13.344 107.503 12.4493 107.122 11.892C106.755 11.3347 106.19 11.056 105.428 11.056C105.032 11.056 104.636 11.1367 104.24 11.298C103.844 11.4447 103.47 11.65 103.118 11.914C102.766 12.178 102.458 12.4933 102.194 12.86C101.93 13.2267 101.732 13.63 101.6 14.07V21H99.6636V9.516H101.424V11.98C101.878 11.1733 102.531 10.528 103.382 10.044C104.247 9.56 105.186 9.318 106.198 9.318C106.858 9.318 107.408 9.44267 107.848 9.692C108.288 9.92667 108.64 10.264 108.904 10.704C109.168 11.1293 109.351 11.6353 109.454 12.222C109.571 12.8087 109.63 13.4467 109.63 14.136V21ZM117.722 21.22C116.857 21.22 116.065 21.066 115.346 20.758C114.627 20.4353 114.011 20.0027 113.498 19.46C112.985 18.9173 112.581 18.2867 112.288 17.568C112.009 16.8347 111.87 16.0647 111.87 15.258C111.87 14.4513 112.009 13.6887 112.288 12.97C112.581 12.2513 112.985 11.6207 113.498 11.078C114.026 10.5353 114.649 10.11 115.368 9.802C116.087 9.47933 116.879 9.318 117.744 9.318C118.609 9.318 119.394 9.47933 120.098 9.802C120.817 10.1247 121.425 10.5573 121.924 11.1C122.423 11.628 122.804 12.2513 123.068 12.97C123.347 13.674 123.486 14.4073 123.486 15.17C123.486 15.3313 123.479 15.478 123.464 15.61C123.464 15.742 123.457 15.8447 123.442 15.918H113.916C113.96 16.49 114.092 17.0107 114.312 17.48C114.532 17.9493 114.818 18.3527 115.17 18.69C115.522 19.0273 115.918 19.2913 116.358 19.482C116.813 19.6727 117.289 19.768 117.788 19.768C118.14 19.768 118.485 19.724 118.822 19.636C119.159 19.5333 119.475 19.4013 119.768 19.24C120.061 19.0787 120.318 18.8807 120.538 18.646C120.773 18.4113 120.949 18.1473 121.066 17.854L122.738 18.316C122.547 18.7413 122.283 19.13 121.946 19.482C121.623 19.834 121.242 20.142 120.802 20.406C120.377 20.6553 119.9 20.8533 119.372 21C118.844 21.1467 118.294 21.22 117.722 21.22ZM121.66 14.488C121.616 13.9453 121.477 13.4467 121.242 12.992C121.022 12.5227 120.736 12.1267 120.384 11.804C120.047 11.4813 119.651 11.232 119.196 11.056C118.741 10.8653 118.257 10.77 117.744 10.77C117.231 10.77 116.747 10.8653 116.292 11.056C115.837 11.232 115.434 11.4887 115.082 11.826C114.745 12.1487 114.466 12.5373 114.246 12.992C114.041 13.4467 113.916 13.9453 113.872 14.488H121.66Z" fill="white"/>
</svg>
