<svg width="193" height="34" viewBox="0 0 193 34" fill="none" xmlns="http://www.w3.org/2000/svg">
<path d="M0.961094 26.5V7.3H18.0971V10.3H4.96909V16.252H16.1771V19.252H4.96909V26.5H0.961094ZM17.9947 26.5V12.076H20.7307L21.2827 13.996C21.5707 13.244 22.0187 12.652 22.6267 12.22C23.2347 11.772 23.9307 11.484 24.7147 11.356C25.5147 11.228 26.3707 11.26 27.2827 11.452C28.1947 11.628 29.1147 11.956 30.0427 12.436V16.084C28.7947 15.412 27.6747 14.996 26.6827 14.836C25.7067 14.66 24.8747 14.684 24.1867 14.908C23.5147 15.132 22.9867 15.54 22.6027 16.132C22.2347 16.708 22.0347 17.412 22.0027 18.244V26.5H17.9947ZM39.5565 11.596C40.9165 11.596 42.1405 11.748 43.2285 12.052C44.3165 12.356 45.2365 12.82 45.9885 13.444C46.7405 14.052 47.3165 14.812 47.7165 15.724C48.1165 16.62 48.3165 17.668 48.3165 18.868V20.476H34.7565C34.7885 21.628 35.2045 22.5 36.0045 23.092C36.8205 23.684 38.0045 23.98 39.5565 23.98C40.9965 23.98 42.1085 23.788 42.8925 23.404C43.6765 23.02 44.1085 22.588 44.1885 22.108H48.1965C47.8285 23.676 46.8765 24.884 45.3405 25.732C43.8205 26.564 41.8925 26.98 39.5565 26.98C38.1965 26.98 36.9725 26.82 35.8845 26.5C34.7965 26.18 33.8685 25.7 33.1005 25.06C32.3485 24.404 31.7645 23.604 31.3485 22.66C30.9485 21.7 30.7485 20.58 30.7485 19.3C30.7485 18.036 30.9485 16.924 31.3485 15.964C31.7645 14.988 32.3485 14.18 33.1005 13.54C33.8685 12.9 34.7965 12.42 35.8845 12.1C36.9725 11.764 38.1965 11.596 39.5565 11.596ZM39.5565 14.596C37.9085 14.596 36.7005 14.892 35.9325 15.484C35.1805 16.06 34.7885 16.852 34.7565 17.86V18.052H44.3085V17.572C44.3085 16.644 43.9005 15.916 43.0845 15.388C42.2845 14.86 41.1085 14.596 39.5565 14.596ZM49.97 15.94C49.97 15.364 50.13 14.812 50.45 14.284C50.77 13.756 51.266 13.3 51.938 12.916C52.626 12.516 53.498 12.196 54.554 11.956C55.61 11.716 56.874 11.596 58.346 11.596C59.93 11.596 61.274 11.708 62.378 11.932C63.482 12.156 64.378 12.476 65.066 12.892C65.77 13.292 66.274 13.788 66.578 14.38C66.898 14.956 67.05 15.612 67.034 16.348L63.314 16.636C63.394 15.98 63.05 15.476 62.282 15.124C61.53 14.772 60.258 14.596 58.466 14.596C57.634 14.596 56.93 14.652 56.354 14.764C55.778 14.86 55.306 14.988 54.938 15.148C54.586 15.308 54.33 15.492 54.17 15.7C54.01 15.892 53.93 16.076 53.93 16.252C53.93 16.588 54.122 16.852 54.506 17.044C54.89 17.22 55.386 17.364 55.994 17.476C56.618 17.588 57.33 17.684 58.13 17.764C58.93 17.828 59.738 17.916 60.554 18.028C61.386 18.124 62.202 18.26 63.002 18.436C63.802 18.612 64.506 18.86 65.114 19.18C65.738 19.484 66.242 19.884 66.626 20.38C67.01 20.876 67.202 21.492 67.202 22.228C67.202 22.9 67.034 23.524 66.698 24.1C66.362 24.676 65.842 25.18 65.138 25.612C64.434 26.028 63.538 26.356 62.45 26.596C61.378 26.852 60.098 26.98 58.61 26.98C55.442 26.98 53.122 26.516 51.65 25.588C50.194 24.644 49.538 23.388 49.682 21.82L53.186 21.58C53.122 22.396 53.538 23.004 54.434 23.404C55.346 23.788 56.722 23.98 58.562 23.98C59.426 23.98 60.154 23.924 60.746 23.812C61.354 23.7 61.842 23.556 62.21 23.38C62.594 23.188 62.866 22.988 63.026 22.78C63.202 22.556 63.29 22.348 63.29 22.156C63.29 21.804 63.098 21.532 62.714 21.34C62.33 21.132 61.826 20.972 61.202 20.86C60.578 20.732 59.866 20.628 59.066 20.548C58.282 20.468 57.466 20.38 56.618 20.284C55.786 20.172 54.97 20.028 54.17 19.852C53.386 19.66 52.682 19.404 52.058 19.084C51.434 18.764 50.93 18.356 50.546 17.86C50.162 17.348 49.97 16.708 49.97 15.94ZM68.7423 26.5V7.06H72.7503V13.756C73.3103 13.084 74.0863 12.556 75.0783 12.172C76.0703 11.788 77.3103 11.596 78.7983 11.596C81.3263 11.596 83.1823 12.14 84.3663 13.228C85.5503 14.316 86.1423 15.948 86.1423 18.124V26.5H82.1343V18.124C82.1343 17.564 82.0543 17.068 81.8943 16.636C81.7343 16.188 81.4623 15.82 81.0783 15.532C80.7103 15.228 80.2143 14.996 79.5903 14.836C78.9823 14.676 78.2223 14.596 77.3103 14.596C76.5423 14.596 75.8703 14.676 75.2943 14.836C74.7343 14.98 74.2623 15.18 73.8783 15.436C73.5103 15.676 73.2303 15.964 73.0383 16.3C72.8623 16.62 72.7663 16.956 72.7503 17.308V26.5H68.7423Z" fill="#45CB85"/>
<path d="M107.956 20.428C107.924 21.292 107.676 22.124 107.212 22.924C106.764 23.708 106.132 24.404 105.316 25.012C104.516 25.604 103.54 26.084 102.388 26.452C101.252 26.804 99.9805 26.98 98.5725 26.98C97.1005 26.98 95.7325 26.788 94.4685 26.404C93.2205 26.02 92.1325 25.42 91.2045 24.604C90.2765 23.788 89.5485 22.748 89.0205 21.484C88.5085 20.204 88.2525 18.676 88.2525 16.9C88.2525 15.108 88.5085 13.58 89.0205 12.316C89.5485 11.036 90.2765 9.988 91.2045 9.172C92.1325 8.356 93.2205 7.764 94.4685 7.396C95.7325 7.012 97.1005 6.82 98.5725 6.82C100.012 6.82 101.3 6.996 102.436 7.348C103.572 7.7 104.54 8.172 105.34 8.764C106.156 9.34 106.78 10.02 107.212 10.804C107.66 11.572 107.9 12.38 107.932 13.228L106.684 13.3C106.636 12.58 106.42 11.892 106.036 11.236C105.668 10.58 105.14 10.004 104.452 9.508C103.764 8.996 102.924 8.596 101.932 8.308C100.956 8.004 99.8365 7.852 98.5725 7.852C97.2765 7.852 96.0765 8.028 94.9725 8.38C93.8685 8.716 92.9085 9.252 92.0925 9.988C91.2765 10.724 90.6365 11.66 90.1725 12.796C89.7245 13.932 89.5005 15.3 89.5005 16.9C89.5005 18.516 89.7245 19.9 90.1725 21.052C90.6365 22.188 91.2765 23.124 92.0925 23.86C92.9085 24.58 93.8685 25.116 94.9725 25.468C96.0765 25.804 97.2765 25.972 98.5725 25.972C99.8205 25.972 100.94 25.812 101.932 25.492C102.924 25.172 103.764 24.756 104.452 24.244C105.156 23.716 105.7 23.116 106.084 22.444C106.468 21.772 106.676 21.076 106.708 20.356L107.956 20.428ZM124.964 26.5H123.956L123.86 23.764C123.396 24.724 122.604 25.5 121.484 26.092C120.38 26.684 118.884 26.98 116.996 26.98C115.748 26.98 114.7 26.876 113.852 26.668C113.02 26.46 112.34 26.172 111.812 25.804C111.3 25.42 110.932 24.98 110.708 24.484C110.484 23.988 110.372 23.452 110.372 22.876C110.372 22.108 110.564 21.484 110.948 21.004C111.332 20.508 111.836 20.108 112.46 19.804C113.1 19.5 113.82 19.276 114.62 19.132C115.436 18.972 116.26 18.86 117.092 18.796C117.94 18.716 118.764 18.652 119.564 18.604C120.38 18.54 121.1 18.46 121.724 18.364C122.364 18.252 122.876 18.1 123.26 17.908C123.644 17.716 123.836 17.436 123.836 17.068C123.836 16.428 123.732 15.86 123.524 15.364C123.316 14.852 122.972 14.42 122.492 14.068C122.012 13.716 121.38 13.452 120.596 13.276C119.812 13.1 118.844 13.012 117.692 13.012C115.516 13.012 113.948 13.332 112.988 13.972C112.044 14.612 111.628 15.468 111.74 16.54L110.612 16.42C110.484 15.06 110.988 13.988 112.124 13.204C113.276 12.404 115.124 12.004 117.668 12.004C119.012 12.004 120.148 12.116 121.076 12.34C122.004 12.548 122.756 12.868 123.332 13.3C123.908 13.732 124.324 14.268 124.58 14.908C124.836 15.532 124.964 16.252 124.964 17.068V26.5ZM117.116 25.972C118.22 25.972 119.188 25.86 120.02 25.636C120.852 25.412 121.54 25.1 122.084 24.7C122.644 24.3 123.068 23.82 123.356 23.26C123.644 22.7 123.804 22.076 123.836 21.388V18.292C123.436 18.66 122.852 18.924 122.084 19.084C121.316 19.244 120.476 19.372 119.564 19.468C118.652 19.548 117.716 19.628 116.756 19.708C115.812 19.788 114.948 19.94 114.164 20.164C113.396 20.372 112.764 20.684 112.268 21.1C111.772 21.5 111.524 22.068 111.524 22.804C111.524 23.252 111.612 23.668 111.788 24.052C111.964 24.436 112.268 24.772 112.7 25.06C113.132 25.348 113.708 25.572 114.428 25.732C115.148 25.892 116.044 25.972 117.116 25.972ZM148.697 26.5V16.876C148.697 15.628 148.353 14.676 147.665 14.02C146.993 13.348 145.849 13.012 144.233 13.012C143.561 13.012 142.937 13.092 142.361 13.252C141.785 13.412 141.289 13.652 140.873 13.972C140.473 14.292 140.153 14.7 139.913 15.196C139.689 15.676 139.577 16.236 139.577 16.876V26.5H138.329V16.876C138.329 15.628 137.961 14.676 137.225 14.02C136.489 13.348 135.369 13.012 133.865 13.012C133.209 13.012 132.601 13.1 132.041 13.276C131.481 13.436 130.993 13.684 130.577 14.02C130.177 14.356 129.849 14.772 129.593 15.268C129.353 15.748 129.225 16.3 129.209 16.924V26.5H127.961V12.484H128.921L129.089 14.572C129.537 13.724 130.193 13.084 131.057 12.652C131.937 12.22 132.937 12.004 134.057 12.004C135.417 12.004 136.529 12.252 137.393 12.748C138.273 13.244 138.873 13.988 139.193 14.98C139.577 13.972 140.233 13.228 141.161 12.748C142.105 12.252 143.201 12.004 144.449 12.004C148.113 12.004 149.945 13.628 149.945 16.876V26.5H148.697ZM152.97 15.844C152.97 15.364 153.114 14.892 153.402 14.428C153.69 13.964 154.138 13.556 154.746 13.204C155.37 12.836 156.162 12.548 157.122 12.34C158.082 12.116 159.234 12.004 160.578 12.004C161.778 12.004 162.858 12.1 163.818 12.292C164.794 12.484 165.618 12.764 166.29 13.132C166.962 13.5 167.466 13.956 167.802 14.5C168.138 15.044 168.274 15.668 168.21 16.372L167.034 16.42C167.098 15.86 166.986 15.372 166.698 14.956C166.426 14.524 166.002 14.164 165.426 13.876C164.85 13.588 164.146 13.372 163.314 13.228C162.498 13.084 161.594 13.012 160.602 13.012C159.45 13.012 158.466 13.1 157.65 13.276C156.85 13.452 156.194 13.676 155.682 13.948C155.17 14.22 154.794 14.532 154.554 14.884C154.33 15.236 154.218 15.58 154.218 15.916C154.218 16.46 154.426 16.892 154.842 17.212C155.258 17.532 155.802 17.796 156.474 18.004C157.146 18.196 157.914 18.348 158.778 18.46C159.642 18.572 160.522 18.684 161.418 18.796C162.33 18.908 163.218 19.044 164.082 19.204C164.946 19.364 165.714 19.588 166.386 19.876C167.058 20.148 167.602 20.516 168.018 20.98C168.434 21.428 168.642 22.012 168.642 22.732C168.642 23.26 168.482 23.78 168.162 24.292C167.858 24.804 167.386 25.26 166.746 25.66C166.106 26.06 165.29 26.38 164.298 26.62C163.322 26.86 162.162 26.98 160.818 26.98C159.538 26.98 158.378 26.876 157.338 26.668C156.314 26.476 155.45 26.18 154.746 25.78C154.042 25.38 153.514 24.876 153.162 24.268C152.81 23.66 152.674 22.948 152.754 22.132L153.882 22.084C153.802 22.772 153.914 23.364 154.218 23.86C154.538 24.34 155.002 24.74 155.61 25.06C156.218 25.364 156.962 25.596 157.842 25.756C158.738 25.9 159.73 25.972 160.818 25.972C161.97 25.972 162.962 25.876 163.794 25.684C164.626 25.476 165.306 25.212 165.834 24.892C166.378 24.572 166.778 24.22 167.034 23.836C167.29 23.452 167.418 23.076 167.418 22.708C167.418 22.132 167.21 21.668 166.794 21.316C166.378 20.948 165.834 20.66 165.162 20.452C164.49 20.228 163.714 20.06 162.834 19.948C161.97 19.82 161.09 19.7 160.194 19.588C159.298 19.476 158.41 19.348 157.53 19.204C156.666 19.06 155.898 18.852 155.226 18.58C154.554 18.308 154.01 17.956 153.594 17.524C153.178 17.092 152.97 16.532 152.97 15.844Z" fill="white"/>
<path d="M172.415 30.875C171.637 31.336 171.022 31.877 170.635 32.4765H187.271C186.884 31.877 186.269 31.336 185.49 30.875H172.415Z" fill="white"/>
<path d="M170.634 32.4766C170.51 32.6691 170.405 32.8659 170.329 33.0691C170.158 33.5189 170.49 34.0006 170.971 34.0006H186.934C187.415 34.0006 187.746 33.5189 187.576 33.0691C187.499 32.8658 187.395 32.6691 187.271 32.4766H170.634Z" fill="#617D76"/>
<path d="M192.905 13.9525C192.905 6.24663 186.659 0 178.952 0C171.247 0 165 6.24663 165 13.9525C165 20.3915 169.363 25.8091 175.293 27.417L174.798 29.8722C173.896 30.1302 173.094 30.4724 172.415 30.8744H185.49C184.811 30.4725 184.009 30.1302 183.108 29.8722L182.613 27.417C188.543 25.8087 192.905 20.3915 192.905 13.9525ZM178.952 26.0488C172.273 26.0488 166.857 20.6328 166.857 13.9525C166.857 7.27189 172.273 1.85643 178.952 1.85643C185.634 1.85643 191.049 7.27189 191.049 13.9525C191.049 20.6328 185.634 26.0488 178.952 26.0488Z" fill="#617D76"/>
<path d="M166.857 13.9516C166.857 20.6318 172.273 26.0478 178.953 26.0478C185.634 26.0478 191.049 20.6318 191.049 13.9516C191.049 7.27093 185.634 1.85547 178.953 1.85547C172.273 1.85547 166.857 7.27093 166.857 13.9516ZM190.06 13.9516C190.06 20.0855 185.087 25.0582 178.953 25.0582C172.819 25.0582 167.847 20.0855 167.847 13.9516C167.847 7.81767 172.819 2.84532 178.953 2.84532C185.087 2.84532 190.06 7.81761 190.06 13.9516Z" fill="white"/>
<path d="M167.847 13.952C167.847 20.0858 172.819 25.0586 178.953 25.0586C185.087 25.0586 190.06 20.0858 190.06 13.952C190.06 7.81806 185.087 2.8457 178.953 2.8457C172.819 2.8457 167.847 7.818 167.847 13.952ZM185.918 13.952C185.918 17.7984 182.799 20.9159 178.953 20.9159C175.107 20.9159 171.988 17.7984 171.988 13.952C171.988 10.1052 175.107 6.98795 178.953 6.98795C182.799 6.98795 185.918 10.1052 185.918 13.952Z" fill="#45CB85"/>
<path d="M171.988 13.9523C171.988 17.7988 175.106 20.9163 178.952 20.9163C182.799 20.9163 185.917 17.7988 185.917 13.9523C185.917 10.1056 182.799 6.98828 178.952 6.98828C175.106 6.98828 171.988 10.1056 171.988 13.9523ZM181.486 13.9523C181.486 15.3511 180.351 16.4846 178.952 16.4846C177.554 16.4846 176.42 15.3511 176.42 13.9523C176.42 12.5536 177.554 11.42 178.952 11.42C180.351 11.42 181.486 12.5536 181.486 13.9523ZM179.964 8.28886C180.018 8.36294 180.033 8.45954 180.003 8.54574L179.663 9.54972C179.627 9.65708 179.53 9.73021 179.416 9.73796C177.663 9.84242 176.032 10.6891 174.941 12.0622C174.866 12.1538 174.743 12.19 174.633 12.1527L173.648 11.8178C173.5 11.7677 173.419 11.6054 173.469 11.4568L173.508 11.3835C174.947 9.38679 177.275 8.18546 179.734 8.17003C179.825 8.17009 179.911 8.21461 179.964 8.28886Z" fill="#617D76"/>
<path d="M173.508 11.3833L173.469 11.4566C173.419 11.6053 173.5 11.7676 173.648 11.8176L174.634 12.1525C174.743 12.1898 174.867 12.1536 174.941 12.062C176.032 10.689 177.663 9.84225 179.417 9.73779C179.53 9.7301 179.627 9.65691 179.663 9.54955L180.004 8.54557C180.034 8.45932 180.019 8.36271 179.965 8.28869C179.912 8.21444 179.826 8.16992 179.734 8.16992C177.275 8.18529 174.948 9.38662 173.508 11.3833Z" fill="#45CB85"/>
<path d="M176.42 13.9522C176.42 15.3511 177.554 16.4845 178.952 16.4845C180.351 16.4845 181.486 15.351 181.486 13.9522C181.486 12.5536 180.351 11.4199 178.952 11.4199C177.554 11.4199 176.42 12.5536 176.42 13.9522Z" fill="white"/>
</svg>
